<svg width="16" height="15" viewBox="0 0 16 15" fill="none" xmlns="http://www.w3.org/2000/svg">
<path d="M1.48366 10.85L0.666992 10.25L3.80033 5.24998L5.80033 7.58331L8.45033 3.28331L10.267 5.98331C10.0892 6.00554 9.91699 6.04165 9.75032 6.09165C9.58366 6.14165 9.41699 6.19998 9.25033 6.26665L8.50033 5.11665L5.95033 9.26665L3.93366 6.91665L1.48366 10.85ZM14.617 14.3333L12.3837 12.1C12.1503 12.2666 11.8975 12.3944 11.6253 12.4833C11.3531 12.5722 11.0725 12.6166 10.7837 12.6166C9.99477 12.6166 9.32533 12.3416 8.77533 11.7916C8.22533 11.2416 7.95033 10.5722 7.95033 9.78331C7.95033 8.99442 8.22533 8.32498 8.77533 7.77498C9.32533 7.22498 9.99477 6.94998 10.7837 6.94998C11.5725 6.94998 12.242 7.22498 12.792 7.77498C13.342 8.32498 13.617 8.99442 13.617 9.78331C13.617 10.0722 13.5698 10.3528 13.4753 10.625C13.3809 10.8972 13.2559 11.1555 13.1003 11.4L15.3337 13.6166L14.617 14.3333ZM10.7837 11.6166C11.2948 11.6166 11.7281 11.4389 12.0837 11.0833C12.4392 10.7278 12.617 10.2944 12.617 9.78331C12.617 9.2722 12.4392 8.83887 12.0837 8.48331C11.7281 8.12776 11.2948 7.94998 10.7837 7.94998C10.2725 7.94998 9.83921 8.12776 9.48366 8.48331C9.1281 8.83887 8.95033 9.2722 8.95033 9.78331C8.95033 10.2944 9.1281 10.7278 9.48366 11.0833C9.83921 11.4389 10.2725 11.6166 10.7837 11.6166ZM12.017 6.14998C11.8503 6.08331 11.6781 6.03887 11.5003 6.01665C11.3225 5.99442 11.1392 5.9722 10.9503 5.94998L14.517 0.333313L15.3337 0.933313L12.017 6.14998Z" fill="#717171"/>
</svg>
