<svg width="7" height="12" viewBox="0 0 7 12" fill="none" xmlns="http://www.w3.org/2000/svg">
<path d="M3.66622 9.4C2.29289 9.4 1.75289 8.78667 1.67956 8H0.212891C0.292891 9.46 1.38622 10.28 2.66622 10.5533V12H4.66622V10.5667C5.96622 10.32 6.99956 9.56667 6.99956 8.2C6.99956 6.30667 5.37956 5.66 3.86622 5.26667C2.35289 4.87333 1.86622 4.46667 1.86622 3.83333C1.86622 3.10667 2.53956 2.6 3.66622 2.6C4.85289 2.6 5.29289 3.16667 5.33289 4H6.80622C6.75956 2.85333 6.05956 1.8 4.66622 1.46V0H2.66622V1.44C1.37289 1.72 0.332891 2.56 0.332891 3.84667C0.332891 5.38667 1.60622 6.15333 3.46622 6.6C5.13289 7 5.46622 7.58667 5.46622 8.20667C5.46622 8.66667 5.13956 9.4 3.66622 9.4Z" fill="#717171"/>
</svg>
