<svg width="12" height="14" viewBox="0 0 12 14" fill="none" xmlns="http://www.w3.org/2000/svg">
<path d="M11 1.33334L10 0.333344L9 1.33334L8 0.333344L7 1.33334L6 0.333344L5 1.33334L4 0.333344L3 1.33334L2 0.333344L1 1.33334L0 0.333344V13.6667L1 12.6667L2 13.6667L3 12.6667L4 13.6667L5 12.6667L6 13.6667L7 12.6667L8 13.6667L9 12.6667L10 13.6667L11 12.6667L12 13.6667V0.333344L11 1.33334ZM10.6667 11.7267H1.33333V2.27334H10.6667V11.7267ZM2 9.00001H10V10.3333H2V9.00001ZM2 6.33334H10V7.66668H2V6.33334ZM2 3.66668H10V5.00001H2V3.66668Z" fill="#717171"/>
</svg>
