<svg width="16" height="16" viewBox="0 0 16 16" fill="none" xmlns="http://www.w3.org/2000/svg">
<path fill-rule="evenodd" clip-rule="evenodd" d="M12.6667 1.33334H3.33333C2.59333 1.33334 2 1.93334 2 2.66668V12C2 12.7333 2.59333 13.3333 3.33333 13.3333H6L8 15.3333L10 13.3333H12.6667C13.4 13.3333 14 12.7333 14 12V2.66668C14 1.93334 13.4 1.33334 12.6667 1.33334ZM8.66667 10.6667V12H7.33333V10.6667H8.66667ZM9.44667 7.44668L10.0467 6.83334C10.4267 6.45334 10.6667 5.92001 10.6667 5.33334C10.6667 3.86001 9.47333 2.66668 8 2.66668C6.52667 2.66668 5.33333 3.86001 5.33333 5.33334H6.66667C6.66667 4.60001 7.26667 4.00001 8 4.00001C8.73333 4.00001 9.33333 4.60001 9.33333 5.33334C9.33333 5.70001 9.18667 6.03334 8.94 6.27334L8.11333 7.11334C7.63333 7.60001 7.33333 8.26668 7.33333 9.00001V9.33334H8.66667C8.66667 8.33334 8.96667 7.93334 9.44667 7.44668Z" fill="#717171"/>
<mask id="mask0_6001_1985" style="mask-type:alpha" maskUnits="userSpaceOnUse" x="2" y="1" width="12" height="15">
<path fill-rule="evenodd" clip-rule="evenodd" d="M12.6667 1.33334H3.33333C2.59333 1.33334 2 1.93334 2 2.66668V12C2 12.7333 2.59333 13.3333 3.33333 13.3333H6L8 15.3333L10 13.3333H12.6667C13.4 13.3333 14 12.7333 14 12V2.66668C14 1.93334 13.4 1.33334 12.6667 1.33334ZM8.66667 10.6667V12H7.33333V10.6667H8.66667ZM9.44667 7.44668L10.0467 6.83334C10.4267 6.45334 10.6667 5.92001 10.6667 5.33334C10.6667 3.86001 9.47333 2.66668 8 2.66668C6.52667 2.66668 5.33333 3.86001 5.33333 5.33334H6.66667C6.66667 4.60001 7.26667 4.00001 8 4.00001C8.73333 4.00001 9.33333 4.60001 9.33333 5.33334C9.33333 5.70001 9.18667 6.03334 8.94 6.27334L8.11333 7.11334C7.63333 7.60001 7.33333 8.26668 7.33333 9.00001V9.33334H8.66667C8.66667 8.33334 8.96667 7.93334 9.44667 7.44668Z" fill="white"/>
</mask>
<g mask="url(#mask0_6001_1985)">
</g>
</svg>
