<svg width="14" height="12" viewBox="0 0 14 12" fill="none" xmlns="http://www.w3.org/2000/svg">
<path d="M12.9997 5.35V11C12.9997 11.2667 12.8997 11.5 12.6997 11.7C12.4997 11.9 12.2663 12 11.9997 12H1.98299C1.71633 12 1.48299 11.9 1.28299 11.7C1.08299 11.5 0.982995 11.2667 0.982995 11V5.35C0.671884 5.08333 0.466328 4.75556 0.366328 4.36667C0.266328 3.97778 0.277439 3.58889 0.399661 3.2L1.11633 0.95C1.20522 0.65 1.36077 0.416667 1.58299 0.25C1.80522 0.0833333 2.06077 0 2.34966 0H11.5663C11.8774 0 12.1497 0.0861112 12.383 0.258333C12.6163 0.430556 12.7774 0.661111 12.8663 0.95L13.5997 3.2C13.7219 3.58889 13.7302 3.97778 13.6247 4.36667C13.5191 4.75556 13.3108 5.08333 12.9997 5.35ZM8.49966 4.83333C8.82188 4.83333 9.09411 4.72778 9.31633 4.51667C9.53855 4.30556 9.62744 4.05 9.583 3.75L9.16633 1H7.49966V3.75C7.49966 4.03889 7.59411 4.29167 7.783 4.50833C7.97188 4.725 8.21077 4.83333 8.49966 4.83333ZM5.38299 4.83333C5.69411 4.83333 5.95799 4.72778 6.17466 4.51667C6.39133 4.30556 6.49966 4.05 6.49966 3.75V1H4.83299L4.41633 3.75C4.37188 4.03889 4.44966 4.29167 4.64966 4.50833C4.84966 4.725 5.09411 4.83333 5.38299 4.83333ZM2.34966 4.83333C2.61633 4.83333 2.84688 4.74167 3.04133 4.55833C3.23577 4.375 3.34966 4.15 3.38299 3.88333L3.81633 1H2.14966L1.38299 3.43333C1.27188 3.77778 1.31633 4.09722 1.51633 4.39167C1.71633 4.68611 1.99411 4.83333 2.34966 4.83333ZM11.633 4.83333C11.9886 4.83333 12.2691 4.68889 12.4747 4.4C12.6802 4.11111 12.7274 3.78889 12.6163 3.43333L11.8497 1H10.183L10.6163 3.88333C10.6497 4.15 10.7636 4.375 10.958 4.55833C11.1524 4.74167 11.3774 4.83333 11.633 4.83333ZM1.98299 11H11.9997V5.81667C12.0108 5.82778 11.9747 5.83333 11.8913 5.83333H11.633C11.3552 5.83333 11.0913 5.775 10.8413 5.65833C10.5913 5.54167 10.3441 5.36111 10.0997 5.11667C9.92188 5.33889 9.69966 5.51389 9.43299 5.64167C9.16633 5.76944 8.87188 5.83333 8.54966 5.83333C8.21633 5.83333 7.93022 5.78611 7.69133 5.69167C7.45244 5.59722 7.22188 5.43889 6.99966 5.21667C6.833 5.41667 6.62188 5.56944 6.36633 5.675C6.11077 5.78056 5.82188 5.83333 5.49966 5.83333C5.15522 5.83333 4.84966 5.77222 4.58299 5.65C4.31633 5.52778 4.08855 5.35 3.89966 5.11667C3.63299 5.35 3.37188 5.52778 3.11633 5.65C2.86077 5.77222 2.60522 5.83333 2.34966 5.83333H2.12466C2.05244 5.83333 2.00522 5.82778 1.98299 5.81667V11ZM11.9997 11H1.98299H11.9997Z" fill="#717171"/>
</svg>
